# File produced by Open Asset Import Library (http://www.assimp.sf.net)
# (assimp v3.1.236340372)

mtllib The%20Moth.mtl

# vertex positions
v -6.951227 0.064601 8.530470
v -5.951227 0.064601 8.530470
v -5.951227 4.083819 8.530470
v -6.921093 4.080954 8.545574
v -5.951227 4.083819 7.530470
v -6.951227 4.083819 7.530470
v -5.951227 0.064601 7.530470
v -6.951227 0.064601 7.530470
v 6.606591 0.064601 8.530470
v 7.606591 0.064601 8.530470
v 7.645815 4.080954 8.545574
v 6.606591 4.083819 8.530470
v 7.606591 4.083819 7.530470
v 6.606591 4.083819 7.530470
v 7.606591 0.064601 7.530470
v 6.606591 0.064601 7.530470
v 7.645815 6.741945 1.764332
v 7.645815 6.741945 -11.919061
v -6.921093 6.741945 -11.919061
v -6.921093 6.741945 1.764332
v -6.921093 6.741945 8.545574
v 7.645815 6.741945 8.545574
v 7.645815 0.124963 -11.919061
v -6.921093 0.124963 -11.919061
v 7.645815 0.124963 0.375664
v -6.921093 0.124963 0.375664
v -6.921093 4.080954 0.375664
v 7.645815 4.080954 0.375664
v -6.902626 0.155887 0.457416
v 7.624234 0.155887 0.457416
v 7.624234 4.041911 0.457416
v -6.902626 4.041911 0.457416
v 7.624234 4.041911 0.294520
v -6.902626 4.041911 0.294520
v 7.624234 0.155887 0.294520
v -6.902626 0.155887 0.294520
v 4.961694 0.165842 0.541090
v 6.070562 0.165842 0.541090
v 6.070562 2.603459 0.541090
v 4.961694 2.603459 0.541090
v 6.070562 2.603459 -0.041311
v 4.961694 2.603459 -0.041311
v 6.070562 0.165842 -0.041311
v 4.961694 0.165842 -0.041311
v 6.770201 4.557559 -6.131317
v 6.765906 4.557559 0.415714
v 6.765906 6.042458 0.415714
v 6.770201 6.042458 -6.131317
v 7.755265 6.042458 0.416377
v 7.759559 6.042458 -6.130654
v 7.755265 4.557559 0.416377
v 7.759559 4.557559 -6.130654
v -3.234710 4.557559 8.757439
v 3.242654 4.557559 8.757439
v 3.242654 6.042458 8.757439
v -3.234710 6.042458 8.757439
v 3.242654 6.042458 7.676571
v -3.234710 6.042458 7.676571
v 3.242654 4.557559 7.676571
v -3.234710 4.557559 7.676571
v -7.008751 4.557559 -6.131317
v -7.013046 4.557559 0.415714
v -7.013046 6.042458 0.415714
v -7.008751 6.042458 -6.131317
v -6.023687 6.042458 0.416377
v -6.019392 6.042458 -6.130654
v -6.023687 4.557559 0.416377
v -6.019392 4.557559 -6.130654

# UV coordinates
vt 0.454496 -1.370806
vt 0.454496 -1.361251
vt 0.454496 -0.604503
vt 0.454496 -0.497381
vt -0.567503 0.152244
vt 1.660692 0.142689
vt -0.567503 0.908993
vt 1.660692 0.899438
vt 0.454496 1.665740
vt 0.454496 1.656185
vt -0.567503 -1.351696
vt -0.567503 -0.594948
vt 1.660692 -1.380361
vt 1.660692 -0.623613
vt 0.454496 -0.497042
vt 0.454496 -0.614058
vt 1.197228 0.152244
vt -0.056504 0.142689
vt 1.197228 0.908993
vt -0.056504 0.899438
vt 1.197228 -1.351696
vt 1.197228 -0.594948
vt -0.056504 -1.380361
vt -0.056504 -0.623613
vt 0.858542 0.152244
vt 0.204938 0.142689
vt 0.858542 0.908993
vt 0.204938 0.899438
vt 0.204938 -0.623613
vt 0.204938 -1.380361
vt 0.454496 -0.992432
vt 0.454496 -0.992430
vt 0.454496 -0.982876
vt 0.454496 -0.982877
vt 0.858542 -1.351696
vt 0.858542 -0.594948
vt 0.201864 -0.906964
vt 0.798136 -0.906964
vt 0.798136 -0.181745
vt 0.201864 -0.181745
vt 0.798136 0.543474
vt 0.201864 0.543474
vt 0.798136 1.268693
vt 0.201864 1.268693
vt 0.798136 1.993912
vt 0.201864 1.993912
vt 1.394408 -0.906964
vt 1.394408 -0.181745
vt -0.394408 -0.906964
vt -0.394408 -0.181745
vt 0.001891 0.001992
vt 0.331370 0.001992
vt 0.331370 0.331472
vt 0.001891 0.331472
vt 0.338705 0.001992
vt 0.668185 0.001992
vt 0.668185 0.331472
vt 0.338705 0.331472
vt 0.617659 0.335260
vt 0.947139 0.335260
vt 0.947139 0.664740
vt 0.617659 0.664740
vt 0.282356 0.335260
vt 0.611836 0.335260
vt 0.611836 0.664740
vt 0.282356 0.664740
vt 0.001890 0.668528
vt 0.331370 0.668528
vt 0.331370 0.998008
vt 0.001890 0.998008
vt 0.338705 0.668528
vt 0.668185 0.668528
vt 0.668185 0.998008
vt 0.338705 0.998008
vt 0.997440 1.004057
vt -0.073882 1.006634
vt -0.001253 -0.004058
vt 1.070069 -0.006634
vt 1.009459 0.837557
vt -0.062075 0.843088
vt -0.013273 0.162442
vt 1.058262 0.156912
vt 0.998022 0.982399
vt 0.002162 1.061157
vt -0.001836 0.017600
vt 0.994024 -0.061157
vt -0.012952 0.159488
vt 1.058158 0.159865
vt 1.009138 0.840511
vt -0.061971 0.840134
vt 0.352147 0.840615
vt 0.401058 0.159969
vt 0.644040 0.159384
vt 0.595128 0.840031
vt 0.644039 0.159385
vt 0.595128 0.840030
vt 0.352147 0.840614
vt 0.401059 0.159970
vt 0.027367 -0.010936
vt 1.026134 -0.031053
vt 0.968819 1.010936
vt -0.029948 1.031053
vt 1.009299 0.839035
vt -0.062023 0.841611
vt -0.013112 0.160965
vt 1.058210 0.158389
vt 0.997441 1.004056
vt -0.073882 1.006633
vt -0.001254 -0.004057
vt 1.070069 -0.006633
vt 0.644040 0.159385
vt 0.401058 0.159970
vt 1.026134 -0.031054
vt -0.013273 0.162443
vt 1.058158 0.159866
vt 1.009138 0.840512
vt -0.061971 0.840133
vt 0.401059 0.159969

# vertex normals
vn 0.007669 -0.001908 0.999969
vn -0.001444 0.999998 0.001444
vn 0.000000 0.000000 -1.000000
vn 0.000000 -1.000000 0.000000
vn 1.000000 0.000000 0.000000
vn -0.999881 0.003722 0.014958
vn -0.007408 -0.001843 0.999971
vn 0.001395 0.999998 0.001395
vn 0.999799 -0.004844 -0.019468
vn -1.000000 0.000000 0.000000
vn 0.000000 1.000000 0.000000
vn 0.000000 0.000000 1.000000
vn -1.000000 0.000000 -0.000656
vn 1.000000 0.000000 0.000656
vn -0.000670 0.000000 1.000000
vn 0.000670 0.000000 -1.000000

# Mesh
g Tavern
usemtl blinn3SG
f 4/4/1 1/1/1 2/2/1
f 2/2/1 3/3/1 4/4/1
f 6/6/2 4/4/2 3/3/2
f 3/3/2 5/5/2 6/6/2
f 8/8/3 6/6/3 5/5/3
f 5/5/3 7/7/3 8/8/3
f 1/10/4 8/8/4 7/7/4
f 7/7/4 2/9/4 1/10/4
f 3/3/5 2/2/5 7/11/5
f 7/11/5 5/12/5 3/3/5
f 6/14/6 8/13/6 1/1/6
f 1/1/6 4/4/6 6/14/6
f 12/16/7 9/1/7 10/2/7
f 10/2/7 11/15/7 12/16/7
f 14/18/8 12/16/8 11/15/8
f 11/15/8 13/17/8 14/18/8
f 16/20/3 14/18/3 13/17/3
f 13/17/3 15/19/3 16/20/3
f 9/10/4 16/20/4 15/19/4
f 15/19/4 10/9/4 9/10/4
f 11/15/9 10/2/9 15/21/9
f 15/21/9 13/22/9 11/15/9
f 14/24/10 16/23/10 9/1/10
f 9/1/10 12/16/10 14/24/10
f 22/3/11 17/3/11 18/25/11
f 22/3/11 18/25/11 19/26/11
f 22/3/11 19/26/11 20/16/11
f 20/16/11 21/16/11 22/3/11
f 24/28/3 19/26/3 18/25/3
f 18/25/3 23/27/3 24/28/3
f 26/10/4 24/28/4 23/27/4
f 23/27/4 25/9/4 26/10/4
f 21/16/10 20/16/10 19/29/10
f 21/16/10 19/29/10 24/30/10
f 24/30/10 26/1/10 27/31/10
f 27/31/10 4/32/10 21/16/10
f 24/30/10 27/31/10 21/16/10
f 17/3/5 22/3/5 11/33/5
f 17/3/5 11/33/5 28/34/5
f 28/34/5 25/2/5 23/35/5
f 28/34/5 23/35/5 18/36/5
f 17/3/5 28/34/5 18/36/5
f 21/16/12 4/32/12 11/33/12
f 11/33/12 22/3/12 21/16/12
f 4/32/4 27/31/4 28/34/4
f 28/34/4 11/33/4 4/32/4

# Mesh
g Glass_Window
usemtl blinn1SG
f 32/40/12 29/37/12 30/38/12
f 30/38/12 31/39/12 32/40/12
f 34/42/11 32/40/11 31/39/11
f 31/39/11 33/41/11 34/42/11
f 36/44/3 34/42/3 33/41/3
f 33/41/3 35/43/3 36/44/3
f 29/46/4 36/44/4 35/43/4
f 35/43/4 30/45/4 29/46/4
f 31/39/5 30/38/5 35/47/5
f 35/47/5 33/48/5 31/39/5
f 34/50/10 36/49/10 29/37/10
f 29/37/10 32/40/10 34/50/10

# Mesh
g Glass_Door
usemtl blinn2SG
f 40/54/12 37/51/12 38/52/12
f 38/52/12 39/53/12 40/54/12
f 42/58/11 40/55/11 39/56/11
f 39/56/11 41/57/11 42/58/11
f 44/62/3 42/59/3 41/60/3
f 41/60/3 43/61/3 44/62/3
f 37/66/4 44/63/4 43/64/4
f 43/64/4 38/65/4 37/66/4
f 39/70/5 38/67/5 43/68/5
f 43/68/5 41/69/5 39/70/5
f 42/74/10 44/71/10 37/72/10
f 37/72/10 40/73/10 42/74/10

# Mesh
g Sign
usemtl lambert4SG
f 48/78/13 45/75/13 46/76/13
f 46/76/13 47/77/13 48/78/13
f 50/82/11 48/79/11 47/80/11
f 47/80/11 49/81/11 50/82/11
f 52/86/14 50/83/14 49/84/14
f 49/84/14 51/85/14 52/86/14
f 45/90/4 52/87/4 51/88/4
f 51/88/4 46/89/4 45/90/4
f 47/94/15 46/91/15 51/92/15
f 51/92/15 49/93/15 47/94/15
f 50/98/16 52/95/16 45/96/16
f 45/96/16 48/97/16 50/98/16
f 56/102/12 53/99/12 54/100/12
f 54/100/12 55/101/12 56/102/12
f 58/106/11 56/103/11 55/104/11
f 55/104/11 57/105/11 58/106/11
f 60/110/3 58/107/3 57/108/3
f 57/108/3 59/109/3 60/110/3
f 53/106/4 60/103/4 59/104/4
f 59/104/4 54/105/4 53/106/4
f 55/94/5 54/91/5 59/92/5
f 59/92/5 57/111/5 55/94/5
f 58/96/10 60/91/10 53/112/10
f 53/112/10 56/111/10 58/96/10
f 64/102/13 61/99/13 62/113/13
f 62/113/13 63/101/13 64/102/13
f 66/82/11 64/79/11 63/80/11
f 63/80/11 65/114/11 66/82/11
f 68/108/14 66/109/14 65/78/14
f 65/78/14 67/75/14 68/108/14
f 61/117/4 68/87/4 67/115/4
f 67/115/4 62/116/4 61/117/4
f 63/96/15 62/91/15 67/112/15
f 67/112/15 65/111/15 63/96/15
f 66/118/16 68/95/16 61/94/16
f 61/94/16 64/91/16 66/118/16
